PathFileType	4	(X/Y/Z)	C:/Users/opensim2020/Desktop/walking_exp_matlab/subject01_walking04_straight_04.trc																																																																																																																															
DataRate	CameraRate	NumFrames	NumMarkers	Units	OrigDataRate	OrigDataStartFrame	OrigNumFrames																																																																																																																											
100	100	4	43	mm	100	2731	279																																																																																																																											
Frame#	Time	LFHD			RFHD			LBHD			RBHD			C7			T10			CLAV			STRN			RBAK			LSHO			LUPA			LELB			LFRM			LWRA			LWRB			LFIN			RSHO			RUPA			RELB			RFRM			RWRA			RWRB			RFIN			LASI			RASI			LPSI			RPSI			LTHI			LKNE			LTIB			LANK			LHEE			LTOE			RTHI			RKNE			RTIB			RANK			RHEE			RTOE			*39			*40			*41			*42		
		X1	Y1	Z1	X2	Y2	Z2	X3	Y3	Z3	X4	Y4	Z4	X5	Y5	Z5	X6	Y6	Z6	X7	Y7	Z7	X8	Y8	Z8	X9	Y9	Z9	X10	Y10	Z10	X11	Y11	Z11	X12	Y12	Z12	X13	Y13	Z13	X14	Y14	Z14	X15	Y15	Z15	X16	Y16	Z16	X17	Y17	Z17	X18	Y18	Z18	X19	Y19	Z19	X20	Y20	Z20	X21	Y21	Z21	X22	Y22	Z22	X23	Y23	Z23	X24	Y24	Z24	X25	Y25	Z25	X26	Y26	Z26	X27	Y27	Z27	X28	Y28	Z28	X29	Y29	Z29	X30	Y30	Z30	X31	Y31	Z31	X32	Y32	Z32	X33	Y33	Z33	X34	Y34	Z34	X35	Y35	Z35	X36	Y36	Z36	X37	Y37	Z37	X38	Y38	Z38	X39	Y39	Z39	X40	Y40	Z40	X41	Y41	Z41	X42	Y42	Z42	X43	Y43	Z43
																																																																																																																																		
35	0.34	-1528.28955	1673.04944	-1368.16235	-1484.18286	1677.43323	-1263.12341	-1637.62109	1625.06836	-1328.47009	-1594.52429	1628.60229	-1216.02551	-1665.68091	1434.5293	-1277.98926	-1701.11462	1143.35339	-1259.61462	-1528.51746	1364.67603	-1318.38062	-1490.13184	1210.74402	-1334.52344	-1696.14294	1241.39722	-1185.82568	-1633.69592	1391.75	-1455.4054	-1692.36792	1209.64209	-1527.28174	-1710.27478	1062.30994	-1530.2616	-1692.60828	955.3783	-1571.33411	-1626.75134	829.88708	-1578.15967	-1687.93469	834.75067	-1590.69128	-1652.1062	756.68488	-1608.5415	-1546.26208	1396.81909	-1156.86108	-1567.85925	1199.49011	-1039.2854	-1558.60156	1072.31287	-1030.73621	-1477.84058	973.97198	-1028.83533	-1366.68933	908.9483	-1089.21375	-1390.72864	888.69031	-1039.83484	-1324.47681	840.21527	-1063.49524	-1563.22437	940.97961	-1410.55908	-1513.37634	931.07349	-1199.4447	-1733.65356	947.22003	-1317.89917	-1697.75671	948.06555	-1178.60229	-1526.63757	634.38873	-1506.58289	-1493.95508	503.05273	-1506.2926	-1520.84436	319.46463	-1527.32251	-1493.55969	93.24107	-1503.13391	-1514.45703	53.32882	-1441.39954	-1355.01086	75.07024	-1548.4165	-1591.99011	599.89899	-1148.98828	-1615.0592	442.0538	-1181.36523	-1688.67615	282.81351	-1164.63	-1761.47327	89.10267	-1209.04358	-1829.04883	58.17793	-1240.36279	-1633.68396	42.97123	-1253.66785	-1501.95984	1711.20239	-1280.45129	-1973.09644	1023.18329	3101.88354	-2012.58081	1021.94263	3140.48657	NaN	NaN	NaN
36	0.35	-1520.43945	1672.22961	-1372.02539	-1476.93567	1676.89563	-1266.73254	-1629.75806	1623.80737	-1332.8335	-1587.47412	1627.66724	-1220.57715	-1657.58264	1433.65173	-1282.41064	-1693.26953	1142.61633	-1263.93921	-1520.09705	1363.71899	-1321.76257	-1481.56201	1209.90393	-1337.24792	-1688.50378	1240.85925	-1189.8197	-1624.28809	1390.49304	-1459.62927	-1683.349	1208.23071	-1531.16492	-1701.86877	1061.13269	-1533.51318	-1685.32068	953.80042	-1573.84863	-1620.85571	827.54395	-1579.70325	-1681.95142	833.11578	-1592.69324	-1646.83374	754.4826	-1609.80969	-1538.83899	1396.25928	-1160.29749	-1560.10522	1199.18542	-1042.7135	-1550.74585	1072.02466	-1033.74414	-1469.3927	974.2395	-1031.69543	-1357.33582	910.25769	-1091.69324	-1381.40894	889.8634	-1042.76367	-1314.43652	842.24365	-1066.22205	-1553.62585	939.95569	-1413.38953	-1505.78638	930.73724	-1201.64026	-1725.08923	946.24323	-1322.36169	-1690.57471	947.66956	-1182.7959	-1520.1759	631.68713	-1509.43909	-1485.24854	501.41302	-1507.87671	-1505.29736	318.29193	-1532.23108	-1469.56958	92.38779	-1511.12695	-1490.90283	50.80698	-1450.66943	-1328.77173	78.91569	-1552.24219	-1587.18286	599.83478	-1150.11682	-1611.04919	441.98929	-1182.04382	-1686.67517	283.62979	-1165.26514	-1760.99158	90.10554	-1209.42676	-1828.76099	59.79196	-1240.76477	-1633.62122	42.83175	-1253.60754	-1494.85071	1710.37427	-1284.09595	-1973.16968	1023.48547	3101.9104	-2012.51587	1022.01758	3140.6731	NaN	NaN	NaN
37	0.36	-1512.53979	1671.37976	-1376.01172	-1469.41406	1676.28455	-1270.50366	-1621.89478	1622.60059	-1337.2926	-1580.13379	1626.7644	-1224.76343	-1649.49805	1432.84021	-1286.97205	-1684.9458	1141.63269	-1268.27612	-1511.68335	1362.92371	-1325.24756	-1472.90796	1209.11243	-1340.12317	-1680.86426	1240.30713	-1193.99072	-1614.87939	1389.28064	-1463.95996	-1674.30811	1206.84924	-1535.04285	-1693.42017	1059.94568	-1536.88245	-1677.875	952.30786	-1576.5033	-1614.72058	825.29974	-1581.37305	-1675.97327	831.72046	-1595.18787	-1641.24548	752.35278	-1611.19922	-1531.34314	1395.72314	-1164.38831	-1552.63843	1198.96338	-1045.99951	-1542.9585	1071.75146	-1036.86902	-1460.82593	974.44458	-1034.62292	-1348.46313	911.42963	-1094.5448	-1372.20947	890.8031	-1045.63232	-1304.97693	843.88611	-1068.7124	-1543.89636	939.091	-1416.45007	-1497.92761	930.36426	-1204.02478	-1716.37732	945.27972	-1327.02563	-1683.21887	947.36023	-1187.13806	-1513.68115	629.20398	-1512.56311	-1476.63757	499.85193	-1509.53455	-1490.62793	317.37418	-1536.69006	-1447.49072	92.18961	-1517.94702	-1469.25293	49.62759	-1458.30505	-1304.74158	82.90071	-1555.29211	-1582.16919	600.02814	-1151.8717	-1607.28577	441.95322	-1183.53198	-1684.43359	284.50708	-1166.0022	-1760.52502	91.44296	-1209.63953	-1828.4585	61.65302	-1241.08398	-1633.5686	42.76458	-1253.58899	-1487.44543	1709.83911	-1288.11975	-1973.09607	1023.2373	3102.03613	-2012.63269	1021.97913	3140.64185	NaN	NaN	NaN
38	0.37	-1504.53162	1670.58252	-1380.01294	-1461.98169	1675.68628	-1274.29956	-1613.94336	1621.46838	-1341.80115	-1572.71643	1625.89807	-1229.1283	-1641.49292	1431.94702	-1291.56335	-1676.79761	1140.7428	-1272.83276	-1503.224	1362.16589	-1328.91614	-1464.29419	1208.24292	-1342.90247	-1673.2876	1239.72729	-1198.35278	-1605.46118	1388.08618	-1468.36682	-1665.22815	1205.53625	-1539.11108	-1684.89453	1058.76221	-1540.31628	-1670.21887	950.8924	-1579.43262	-1608.25806	823.21667	-1583.24194	-1669.05981	829.93433	-1597.10022	-1635.32532	750.35767	-1612.74231	-1523.90283	1395.27576	-1168.13062	-1545.12134	1198.71521	-1049.49219	-1535.18579	1071.45129	-1040.172	-1452.6604	974.6803	-1037.50085	-1339.68762	912.23969	-1096.97705	-1363.57446	891.37946	-1048.25305	-1295.78589	845.11121	-1071.15686	-1534.17615	938.02454	-1419.44458	-1490.18994	930.04102	-1206.38513	-1707.52014	944.32373	-1331.78979	-1675.68445	947.12305	-1191.59595	-1506.92883	626.67963	-1515.62134	-1468.18176	498.53607	-1511.62708	-1477.0022	316.55997	-1540.68042	-1427.47461	92.13229	-1523.56519	-1449.4552	48.45147	-1464.72693	-1283.21704	86.49035	-1557.55688	-1576.78333	600.09454	-1153.57605	-1602.83984	441.84842	-1184.77966	-1681.76624	285.34354	-1166.90332	-1759.93848	92.80279	-1209.96594	-1828.10034	63.80435	-1241.46338	-1633.4989	42.70489	-1253.55066	-1480.07947	1709.20996	-1291.94873	-1973.14941	1023.41064	3101.83838	-2012.43689	1021.94702	3140.82837	NaN	NaN	NaN
